# xmcd
#
# Track frame offsets: 
#        150
#        12937
#        28752
#        60822
#        77442
#        91790
#        109375
#        140617
#        162935
#        185835
#
# Disc length: 3007 seconds
#
# Revision: 0
# Processed by: cddbd v1.5.2PL0 Copyright (c) Steve Scherf et al.
# Submitted via: ExactAudioCopy v0.99pb3
#
DISCID=770bbd0a
DTITLE=Mike Speck - The Name...Jesus (2007)
DYEAR=2007
DGENRE=
TTITLE0=Joy To The World
TTITLE1=Joy
TTITLE2=Cherish That Name
TTITLE3=Look Who Just Checked In
TTITLE4=Christ Is Born
TTITLE5=Glory To God
TTITLE6=That Name
TTITLE7=Worship The Name
TTITLE8=Christ Is Come
TTITLE9=No Other Name
EXTD=
EXTT0=
EXTT1=
EXTT2=
EXTT3=
EXTT4=
EXTT5=
EXTT6=
EXTT7=
EXTT8=
EXTT9=
PLAYORDER=
